<svg xmlns="http://www.w3.org/2000/svg" width="24" height="24" viewBox="0 0 24 24" fill="none" stroke="currentColor" stroke-width="2" stroke-linecap="round" stroke-linejoin="round"><circle cx="13.5" cy="6.5" r=".5" fill="currentColor"/><circle cx="17.5" cy="10.5" r=".5" fill="currentColor"/><circle cx="8.5" cy="7.5" r=".5" fill="currentColor"/><circle cx="6.5" cy="12.5" r=".5" fill="currentColor"/><path d="M12 22C6.5 22 2 17.5 2 12S6.5 2 12 2s10 4 10 9.5c0 3.3-2.7 4.5-5 4.5h-1.8c-.7 0-1.2.5-1.2 1.2 0 .3.1.6.3.8.2.3.3.6.3 1 0 1.7-1.3 3-2.6 3Z"/></svg>
